<svg width="165" height="16" viewBox="0 0 165 16" fill="none" xmlns="http://www.w3.org/2000/svg">
<path d="M6.72 10.032H2.912L2.48 12H0.272L2.72 1.12H6.912L9.36 12H7.152L6.72 10.032ZM5.2 2.944H4.432L3.328 8.112H6.304L5.2 2.944ZM10.617 4H12.745V4.848C13.6623 4.31467 14.5157 3.968 15.305 3.808V5.968C14.505 6.128 13.7637 6.31467 13.081 6.528L12.761 6.64V12H10.617V4ZM18.5221 12.192C16.8688 12.192 16.0421 11.3173 16.0421 9.568C16.0421 8.736 16.2608 8.13867 16.6981 7.776C17.1461 7.40267 17.8608 7.184 18.8421 7.12L20.5541 6.992V6.496C20.5541 6.176 20.4795 5.952 20.3301 5.824C20.1915 5.696 19.9515 5.632 19.6101 5.632C19.2581 5.632 18.7728 5.648 18.1541 5.68C17.5355 5.70133 17.0181 5.728 16.6021 5.76L16.5381 4.272C17.6901 3.96267 18.7781 3.808 19.8021 3.808C20.8261 3.808 21.5621 4.02133 22.0101 4.448C22.4688 4.87467 22.6981 5.55733 22.6981 6.496V9.824C22.7195 10.0907 22.7621 10.272 22.8261 10.368C22.9008 10.464 23.0341 10.5333 23.2261 10.576L23.1621 12.192C22.6075 12.192 22.1648 12.1547 21.8341 12.08C21.5141 12.0053 21.1941 11.856 20.8741 11.632C20.0955 12.0053 19.3115 12.192 18.5221 12.192ZM18.9861 10.448C19.3915 10.448 19.8341 10.384 20.3141 10.256L20.5541 10.192V8.48L19.0981 8.608C18.5008 8.66133 18.2021 8.98133 18.2021 9.568C18.2021 10.1547 18.4635 10.448 18.9861 10.448ZM28.038 12.192C27.2807 12.192 26.3847 12.1387 25.35 12.032L24.742 11.968V0.799999H26.886V4.24C27.2913 4.08 27.622 3.968 27.878 3.904C28.134 3.84 28.4327 3.808 28.774 3.808C29.83 3.808 30.6033 4.13333 31.094 4.784C31.5953 5.43467 31.846 6.50133 31.846 7.984C31.846 9.02933 31.718 9.856 31.462 10.464C31.2167 11.072 30.8167 11.5147 30.262 11.792C29.7073 12.0587 28.966 12.192 28.038 12.192ZM27.91 10.272C28.5713 10.272 29.03 10.1067 29.286 9.776C29.542 9.43467 29.67 8.84267 29.67 8C29.67 7.17867 29.5527 6.59733 29.318 6.256C29.094 5.904 28.7313 5.728 28.23 5.728C27.878 5.728 27.43 5.79733 26.886 5.936V10.208C27.3233 10.2507 27.6647 10.272 27.91 10.272ZM37.1528 1.12H41.4248C42.5874 1.12 43.4408 1.35467 43.9848 1.824C44.5394 2.28267 44.8168 3.02933 44.8168 4.064C44.8168 4.61867 44.7261 5.07733 44.5448 5.44C44.3634 5.80267 44.0541 6.12267 43.6168 6.4C44.0968 6.592 44.4488 6.88533 44.6728 7.28C44.9074 7.67467 45.0248 8.192 45.0248 8.832C45.0248 9.89867 44.7208 10.6933 44.1128 11.216C43.5048 11.7387 42.6301 12 41.4888 12H37.1528V1.12ZM41.3288 5.6C42.1608 5.6 42.5768 5.168 42.5768 4.304C42.5768 3.44 42.1554 3.008 41.3128 3.008H39.3608V5.6H41.3288ZM41.3768 10.112C41.8568 10.112 42.2088 10.016 42.4328 9.824C42.6674 9.62133 42.7848 9.28533 42.7848 8.816C42.7848 8.34667 42.6728 8.00533 42.4488 7.792C42.2248 7.568 41.8674 7.456 41.3768 7.456H39.3608V10.112H41.3768ZM49.3028 12.192C48.6201 12.192 48.0814 12.0533 47.6868 11.776C47.3028 11.4987 47.0308 11.072 46.8708 10.496C46.7108 9.92 46.6308 9.152 46.6308 8.192V4H48.7748V8.224C48.7748 8.8 48.8014 9.232 48.8548 9.52C48.9081 9.79733 49.0148 9.99467 49.1748 10.112C49.3454 10.2187 49.6014 10.272 49.9427 10.272C50.1881 10.272 50.4068 10.2507 50.5988 10.208C50.8014 10.1653 51.0788 10.0907 51.4308 9.984V4H53.5748V12H51.4468V11.552C50.9988 11.7973 50.6148 11.9627 50.2948 12.048C49.9854 12.144 49.6548 12.192 49.3028 12.192ZM58.3545 12.192C57.6505 12.192 56.7918 12.096 55.7785 11.904L55.2665 11.808L55.3305 10.016C56.6212 10.1867 57.5598 10.272 58.1465 10.272C58.5412 10.272 58.8505 10.2293 59.0745 10.144C59.3092 10.0587 59.4265 9.89867 59.4265 9.664C59.4265 9.45067 59.3145 9.296 59.0905 9.2C58.8772 9.104 58.5145 9.01333 58.0025 8.928C57.8105 8.90667 57.6772 8.88533 57.6025 8.864C57.0692 8.768 56.6318 8.65067 56.2905 8.512C55.9492 8.36267 55.6718 8.13333 55.4585 7.824C55.2452 7.504 55.1385 7.06133 55.1385 6.496C55.1385 5.58933 55.4158 4.91733 55.9705 4.48C56.5252 4.04267 57.2878 3.824 58.2585 3.824C58.8345 3.824 59.6825 3.92533 60.8025 4.128L61.3305 4.224L61.2985 6C60.0078 5.82933 59.0532 5.744 58.4345 5.744C58.0718 5.744 57.7838 5.78133 57.5705 5.856C57.3678 5.93067 57.2665 6.07467 57.2665 6.288C57.2665 6.512 57.3732 6.672 57.5865 6.768C57.7998 6.85333 58.1465 6.93867 58.6265 7.024L59.1865 7.12C60.0398 7.29067 60.6478 7.54667 61.0105 7.888C61.3732 8.21867 61.5545 8.75733 61.5545 9.504C61.5545 10.4213 61.2932 11.0987 60.7705 11.536C60.2478 11.9733 59.4425 12.192 58.3545 12.192ZM63.1014 4H65.2454V12H63.1014V4ZM63.1014 0.815999H65.2454V2.976H63.1014V0.815999ZM67.2264 4H69.3544V4.448C69.7597 4.21333 70.117 4.048 70.4264 3.952C70.7464 3.856 71.0877 3.808 71.4504 3.808C72.4317 3.808 73.1304 4.12267 73.5464 4.752C73.9624 5.38133 74.1704 6.352 74.1704 7.664V12H72.0264V7.728C72.0264 6.992 71.9357 6.47467 71.7544 6.176C71.5837 5.87733 71.253 5.728 70.7624 5.728C70.4104 5.728 70.0104 5.80267 69.5624 5.952L69.3704 6.016V12H67.2264V4ZM79.2061 12.192C77.9581 12.192 77.0568 11.8773 76.5021 11.248C75.9475 10.6187 75.6701 9.6 75.6701 8.192C75.6701 6.72 75.9581 5.62133 76.5341 4.896C77.1208 4.17067 78.0275 3.808 79.2541 3.808C80.3848 3.808 81.2381 4.112 81.8141 4.72C82.4008 5.31733 82.6941 6.21867 82.6941 7.424L82.5341 8.912H77.8301C77.8515 9.28533 77.9155 9.57333 78.0221 9.776C78.1395 9.968 78.3208 10.1067 78.5661 10.192C78.8221 10.2667 79.1741 10.304 79.6221 10.304C79.9741 10.304 80.3955 10.2933 80.8861 10.272C81.3768 10.2507 81.7341 10.2293 81.9581 10.208L82.4061 10.16L82.4381 11.744C81.2328 12.0427 80.1555 12.192 79.2061 12.192ZM80.5821 7.28C80.5821 6.64 80.4808 6.19733 80.2781 5.952C80.0861 5.696 79.7395 5.568 79.2381 5.568C78.7261 5.568 78.3635 5.70133 78.1501 5.968C77.9368 6.224 77.8248 6.66133 77.8141 7.28H80.5821ZM87.0264 12.192C86.3224 12.192 85.4637 12.096 84.4504 11.904L83.9384 11.808L84.0024 10.016C85.293 10.1867 86.2317 10.272 86.8184 10.272C87.213 10.272 87.5224 10.2293 87.7464 10.144C87.981 10.0587 88.0984 9.89867 88.0984 9.664C88.0984 9.45067 87.9864 9.296 87.7624 9.2C87.549 9.104 87.1864 9.01333 86.6744 8.928C86.4824 8.90667 86.349 8.88533 86.2744 8.864C85.741 8.768 85.3037 8.65067 84.9624 8.512C84.621 8.36267 84.3437 8.13333 84.1304 7.824C83.917 7.504 83.8104 7.06133 83.8104 6.496C83.8104 5.58933 84.0877 4.91733 84.6424 4.48C85.197 4.04267 85.9597 3.824 86.9304 3.824C87.5064 3.824 88.3544 3.92533 89.4744 4.128L90.0024 4.224L89.9704 6C88.6797 5.82933 87.725 5.744 87.1064 5.744C86.7437 5.744 86.4557 5.78133 86.2424 5.856C86.0397 5.93067 85.9384 6.07467 85.9384 6.288C85.9384 6.512 86.045 6.672 86.2584 6.768C86.4717 6.85333 86.8184 6.93867 87.2984 7.024L87.8584 7.12C88.7117 7.29067 89.3197 7.54667 89.6824 7.888C90.045 8.21867 90.2264 8.75733 90.2264 9.504C90.2264 10.4213 89.965 11.0987 89.4424 11.536C88.9197 11.9733 88.1144 12.192 87.0264 12.192ZM94.5733 12.192C93.8693 12.192 93.0106 12.096 91.9973 11.904L91.4853 11.808L91.5493 10.016C92.8399 10.1867 93.7786 10.272 94.3653 10.272C94.7599 10.272 95.0693 10.2293 95.2933 10.144C95.5279 10.0587 95.6453 9.89867 95.6453 9.664C95.6453 9.45067 95.5333 9.296 95.3093 9.2C95.0959 9.104 94.7333 9.01333 94.2213 8.928C94.0293 8.90667 93.8959 8.88533 93.8213 8.864C93.2879 8.768 92.8506 8.65067 92.5093 8.512C92.1679 8.36267 91.8906 8.13333 91.6773 7.824C91.4639 7.504 91.3573 7.06133 91.3573 6.496C91.3573 5.58933 91.6346 4.91733 92.1893 4.48C92.7439 4.04267 93.5066 3.824 94.4773 3.824C95.0533 3.824 95.9013 3.92533 97.0213 4.128L97.5493 4.224L97.5173 6C96.2266 5.82933 95.2719 5.744 94.6533 5.744C94.2906 5.744 94.0026 5.78133 93.7893 5.856C93.5866 5.93067 93.4853 6.07467 93.4853 6.288C93.4853 6.512 93.5919 6.672 93.8053 6.768C94.0186 6.85333 94.3653 6.93867 94.8453 7.024L95.4053 7.12C96.2586 7.29067 96.8666 7.54667 97.2293 7.888C97.5919 8.21867 97.7733 8.75733 97.7733 9.504C97.7733 10.4213 97.5119 11.0987 96.9893 11.536C96.4666 11.9733 95.6613 12.192 94.5733 12.192ZM108.564 10.032H104.756L104.324 12H102.116L104.564 1.12H108.756L111.204 12H108.996L108.564 10.032ZM107.044 2.944H106.276L105.172 8.112H108.148L107.044 2.944ZM115.279 12.192C114.127 12.192 113.289 11.8613 112.767 11.2C112.255 10.528 111.999 9.46133 111.999 8C111.999 6.51733 112.265 5.45067 112.799 4.8C113.332 4.13867 114.201 3.808 115.407 3.808C115.716 3.808 116.057 3.83467 116.431 3.888C116.804 3.94133 117.305 4.032 117.935 4.16L117.871 5.856C116.964 5.77067 116.335 5.728 115.983 5.728C115.492 5.728 115.119 5.79733 114.863 5.936C114.607 6.064 114.425 6.288 114.319 6.608C114.223 6.928 114.175 7.38667 114.175 7.984C114.175 8.592 114.223 9.056 114.319 9.376C114.425 9.696 114.607 9.92533 114.863 10.064C115.129 10.2027 115.513 10.272 116.015 10.272L117.871 10.144L117.935 11.856C116.804 12.08 115.919 12.192 115.279 12.192ZM121.475 12.192C119.822 12.192 118.995 11.3173 118.995 9.568C118.995 8.736 119.214 8.13867 119.651 7.776C120.099 7.40267 120.814 7.184 121.795 7.12L123.507 6.992V6.496C123.507 6.176 123.433 5.952 123.283 5.824C123.145 5.696 122.905 5.632 122.563 5.632C122.211 5.632 121.726 5.648 121.107 5.68C120.489 5.70133 119.971 5.728 119.555 5.76L119.491 4.272C120.643 3.96267 121.731 3.808 122.755 3.808C123.779 3.808 124.515 4.02133 124.963 4.448C125.422 4.87467 125.651 5.55733 125.651 6.496V9.824C125.673 10.0907 125.715 10.272 125.779 10.368C125.854 10.464 125.987 10.5333 126.179 10.576L126.115 12.192C125.561 12.192 125.118 12.1547 124.787 12.08C124.467 12.0053 124.147 11.856 123.827 11.632C123.049 12.0053 122.265 12.192 121.475 12.192ZM121.939 10.448C122.345 10.448 122.787 10.384 123.267 10.256L123.507 10.192V8.48L122.051 8.608C121.454 8.66133 121.155 8.98133 121.155 9.568C121.155 10.1547 121.417 10.448 121.939 10.448ZM130.319 12.192C129.252 12.192 128.484 11.856 128.015 11.184C127.546 10.5013 127.311 9.47733 127.311 8.112C127.311 6.61867 127.572 5.53067 128.095 4.848C128.628 4.15467 129.444 3.808 130.543 3.808C130.938 3.808 131.54 3.88267 132.351 4.032V0.799999H134.495V12H132.367V11.664C131.93 11.8667 131.556 12.0053 131.247 12.08C130.938 12.1547 130.628 12.192 130.319 12.192ZM130.815 10.272C131.199 10.272 131.636 10.208 132.127 10.08L132.351 10.032V5.824C131.786 5.71733 131.311 5.664 130.927 5.664C130.415 5.664 130.047 5.84533 129.823 6.208C129.599 6.57067 129.487 7.18933 129.487 8.064C129.487 8.864 129.588 9.43467 129.791 9.776C129.994 10.1067 130.335 10.272 130.815 10.272ZM139.534 12.192C138.286 12.192 137.385 11.8773 136.83 11.248C136.276 10.6187 135.998 9.6 135.998 8.192C135.998 6.72 136.286 5.62133 136.862 4.896C137.449 4.17067 138.356 3.808 139.582 3.808C140.713 3.808 141.566 4.112 142.142 4.72C142.729 5.31733 143.022 6.21867 143.022 7.424L142.862 8.912H138.158C138.18 9.28533 138.244 9.57333 138.35 9.776C138.468 9.968 138.649 10.1067 138.894 10.192C139.15 10.2667 139.502 10.304 139.95 10.304C140.302 10.304 140.724 10.2933 141.214 10.272C141.705 10.2507 142.062 10.2293 142.286 10.208L142.734 10.16L142.766 11.744C141.561 12.0427 140.484 12.192 139.534 12.192ZM140.91 7.28C140.91 6.64 140.809 6.19733 140.606 5.952C140.414 5.696 140.068 5.568 139.566 5.568C139.054 5.568 138.692 5.70133 138.478 5.968C138.265 6.224 138.153 6.66133 138.142 7.28H140.91ZM144.555 4H146.683V4.448C147.077 4.224 147.419 4.064 147.707 3.968C148.005 3.86133 148.315 3.808 148.635 3.808C149.008 3.808 149.365 3.872 149.707 4C150.059 4.11733 150.347 4.304 150.571 4.56C151.072 4.304 151.541 4.11733 151.979 4C152.427 3.872 152.88 3.808 153.339 3.808C154.331 3.808 155.035 4.112 155.451 4.72C155.867 5.328 156.075 6.30933 156.075 7.664V12H153.931V7.728C153.931 7.01333 153.851 6.50133 153.691 6.192C153.531 5.88267 153.232 5.728 152.795 5.728C152.485 5.728 152.075 5.80267 151.562 5.952L151.323 6.032C151.365 6.74667 151.387 7.35467 151.387 7.856V12H149.243V7.888C149.243 7.312 149.211 6.87467 149.147 6.576C149.093 6.27733 148.981 6.064 148.811 5.936C148.651 5.79733 148.405 5.728 148.075 5.728C147.733 5.728 147.339 5.80267 146.891 5.952L146.699 6.016V12H144.555V4ZM160.634 12H159.13L157.162 4H159.274L160.73 10.176H161.098L162.554 4H164.666L161.85 15.36H159.754L160.634 12Z" fill="white"/>
</svg>
